{"title":"Bonnie and Clyde (1967)Faye Dunaway+Warren Beatty(Opt.MULTISUBS)","uid":4647838,"size":756542667,"categoryP":"video","categoryS":"movies","magnet":"?xt=urn:btih:adb7d54625b1bad61504c3406b5f12bf79b96e1c&amp;dn=Bonnie+and+Clyde+%281967%29Faye+Dunaway%2BWarren+Beatty%28Opt.MULTISUBS%29&amp;tr=udp%3A%2F%2Ftracker.openbittorrent.com%3A80&amp;tr=udp%3A%2F%2Fopen.demonii.com%3A1337&amp;tr=udp%3A%2F%2Ftracker.coppersurfer.tk%3A6969&amp;tr=udp%3A%2F%2Fexodus.desync.com%3A6969","seeders":2,"leechers":1,"uploader":"Kuthumi","files":-1,"time":1231945946,"description":"Aka:\nBonnie &amp; Clyde (1967)\n &lt;a href=&quot;\nhttp://www.imdb.com/title/tt0061418/&quot; rel=&quot;nofollow&quot; target=&quot;_NEW&quot;&gt;\nhttp://www.imdb.com/title/tt0061418/&lt;/a&gt;\n\nOptional subtitles in separate idx/sub files:\nCroatian (Hrvatski), Czech, Danish, Dutch, English, English for the hearing impaired, Finnish, French, Greek, German, Hebrew, Hungarian, Icelandic, Italian, Norwegian, Polish, Portuguese, Spanish, Swedish, Turkish.\n\nI just discovered that this all-time classic is no longer available as a smaller rip with multisubs, so I mad this for you. As often happen with so old films, the DVD has a slight grain, so I enclose a sample for ye weak in faith. But it IS color, and the original mono sound is unusually good. \n\nWidescreen color DVDrip XviD 2-pass 720x384, good original mono sound AC3.\nBurn tested, runs well in both my standalone DivX players.\n\nFormat/Info                      : Audio Video Interleave\nFile size                        : 696 MiB\nDuration                         : 1h 46mn\nOveral bit rate                  : 910 Kbps\n\nVideo\nFormat                           : MPEG-4 Visual\nFormat profile                   : Streaming Video@L1\nFormat settings, BVOP            : Yes\nFormat settings, QPel            : No\nFormat settings, GMC             : No warppoints\nFormat settings, Matrix          : Default\nMuxing mode                      : Packet Bitstream\nCodec ID                         : XVID\nCodec ID/Hint                    : XviD\nDuration                         : 1h 46mn\nBit rate                         : 772 Kbps\nWidth                            : 720 pixels\nHeight                           : 384 pixels\nDisplay aspect ratio             : 1.875\nFrame rate                       : 25.000 fps\nResolution                       : 8 bits\nColorimetry                      : 4:2:0\nScan type                        : Progressive\nBits/(Pixel*Frame)               : 0.112\nStream size                      : 591 MiB\nWriting library                  : XviD 1.2.0.dev47 (UTC 2006-11-01)\n\nAudio\nFormat                           : MPEG Audio\nFormat version                   : Version 1\nFormat profile                   : Layer 3\nCodec ID                         : 55\nCodec ID/Hint                    : MP3\nDuration                         : 1h 46mn\nBit rate mode                    : Constant\nBit rate                         : 128 Kbps\nMinimum bit rate                 : 128 Kbps\nChannel(s)                       : 2 channels\nSampling rate                    : 48.0 KHz\nResolution                       : 16 bits\nStream size                      : 97.9 MiB\nWriting library                  : LAME3.97 \nEncoding settings                : CBR\n\nSource: PAL retail (note that PAL/NTSC will give no problems for avi files).\n","torrent":{"xt":"urn:btih:adb7d54625b1bad61504c3406b5f12bf79b96e1c","amp;dn":"Bonnie+and+Clyde+%281967%29Faye+Dunaway%2BWarren+Beatty%28Opt.MULTISUBS%29","amp;tr":["udp%3A%2F%2Ftracker.openbittorrent.com%3A80","udp%3A%2F%2Fopen.demonii.com%3A1337","udp%3A%2F%2Ftracker.coppersurfer.tk%3A6969","udp%3A%2F%2Fexodus.desync.com%3A6969"],"infoHash":"adb7d54625b1bad61504c3406b5f12bf79b96e1c","infoHashBuffer":{"type":"Buffer","data":[173,183,213,70,37,177,186,214,21,4,195,64,107,95,18,191,121,185,110,28]},"announce":[],"urlList":[]}}